# xmcd
#
# Track frame offsets: 
#        150
#        13113
#        31113
#        46068
#        61575
#        77637
#        86499
#        105330
#        121946
#        140777
#        160374
#        177057
#        200176
#        219151
#        237982
#        265675
#        281182
#        297721
#        319495
#        334820
#
# Disc length: 4604 seconds
#
# Revision: 0
# Processed by: cddbd v1.5.2PL0 Copyright (c) Steve Scherf et al.
# Submitted via: ExactAudioCopy v0.95b4
#
DISCID=2211fa14
DTITLE=Various Artist - DJ Antoine Live In St.Tropez CD2
DYEAR=2006
DGENRE=House
TTITLE0=DJ Antoine feat. MC Roby Rob - Good Morning St. Tropez
TTITLE1=DJ Peter Presta feat. David Hasselhoff - You're Not Guilty (DJ
TTITLE1=Antoine vs. Mad Mark Club Mix)
TTITLE2=Player and Remady - Nord Electro (Main Mix)
TTITLE3=Doc Phatt - You Like The Bass (Player and Remady Mix)
TTITLE4=LBL feat. Princess Superstar - Goes Busters (Dub Mix)
TTITLE5=Player and Remady - DJ. A.N.T.O.I.N.E (Main Mix)
TTITLE6=Mischa Daniels - Run Away (Original Mix)
TTITLE7=Loleatta Holloway - Love Sensation 06 (HI_Tack Burnin' Up Club
TTITLE7=Mix)
TTITLE8=Ian Verone and Orlow - Push (Original Mix)
TTITLE9=Ortega and Gold pres. Chandler Pereira - The Voodoo You Do (Chri
TTITLE9=ss Ortega Electro Mix)
TTITLE10=Roger Sanchez - Lost (HI_Tack Lost In Da Club Mix)
TTITLE11=DJ Peter Presta feat. David Hasselhoff - You're Not Guilty (I
TTITLE11=an Verone and Orlow Remix)
TTITLE12=DJ Antoine vs. Mad Mark with MC Roby Rob - Oxa (Original Mix)
TTITLE13=Mischa Daniels - Take Me Higher (Original Mix)
TTITLE14=DJ Antoine vs. Mad Mark - Deformation (Der Banditen Mix)
TTITLE15=Mixmaster pres. Mark Vane feat. Bear - Boom Boom Boom (In The
TTITLE15=Mix Club Mix)
TTITLE16=DJ Antoine vs. Mad Mark with MC Roby Rob - Electro Ghetto Shi
TTITLE16=t (Player and Remady Dark Mix)
TTITLE17=Loleatta Holloway - Love Sensation 06 (Doc Phatt Remix)
TTITLE18=Doc Phatt - You Like The Bass (Doc Phatt's Original Mix)
TTITLE19=Roger Sanchez - Lost (Rogers 12'' Mix)
EXTD=
EXTT0=
EXTT1=
EXTT2=
EXTT3=
EXTT4=
EXTT5=
EXTT6=
EXTT7=
EXTT8=
EXTT9=
EXTT10=
EXTT11=
EXTT12=
EXTT13=
EXTT14=
EXTT15=
EXTT16=
EXTT17=
EXTT18=
EXTT19=
PLAYORDER=
